# xmcd CD database file
#
# Track frame offsets:
#	150
#	23093
#	52679
#	87032
#	113699
#	140996
#	172438
#	202936
#
# Disc length: 2884 seconds
#
# Revision: 0
# Processed by: cddbd v1.5.2PL0 Copyright (c) Steve Scherf et al.
# Submitted via: CDex 1.70beta2
#
DISCID=660b4208
DTITLE=Ximo Tebar - Jazz Swing And Ballads
DYEAR=2012
DGENRE=Jazz
TTITLE0=But Not For Me
TTITLE1=Midnight Creeper
TTITLE2=Come To Me
TTITLE3=Laura
TTITLE4=Goes Blue
TTITLE5=Sugar
TTITLE6=Blues Walk
TTITLE7=Lament
EXTD=YEAR: 2012
EXTT0=
EXTT1=
EXTT2=
EXTT3=
EXTT4=
EXTT5=
EXTT6=
EXTT7=
PLAYORDER=
